<svg width="28" height="18" viewBox="0 0 28 18" fill="none" xmlns="http://www.w3.org/2000/svg">
<path d="M20.75 6.79688L18.5469 9L20.75 11.2031C21.2188 11.6719 21.2188 12.375 20.75 12.7969C20.3281 13.2656 19.625 13.2656 19.2031 12.7969L17 10.5938L14.75 12.7969C14.3281 13.2656 13.625 13.2656 13.2031 12.7969C12.7344 12.375 12.7344 11.6719 13.2031 11.2031L15.4062 9L13.2031 6.79688C12.7344 6.375 12.7344 5.67188 13.2031 5.20312C13.625 4.78125 14.3281 4.78125 14.75 5.20312L17 7.45312L19.2031 5.20312C19.625 4.78125 20.3281 4.78125 20.75 5.20312C21.2188 5.67188 21.2188 6.375 20.75 6.79688ZM24.5 0C26.1406 0 27.5 1.35938 27.5 3V15C27.5 16.6875 26.1406 18 24.5 18H10.1094C9.3125 18 8.5625 17.7188 8 17.1562L0.921875 10.0781C0.640625 9.79688 0.5 9.42188 0.5 9C0.5 8.625 0.640625 8.25 0.921875 7.96875L8 0.890625C8.5625 0.328125 9.3125 0 10.1094 0H24.5ZM25.25 3C25.25 2.625 24.875 2.25 24.5 2.25H10.1094C9.92188 2.25 9.6875 2.34375 9.54688 2.48438L3.03125 9L9.54688 15.5625C9.6875 15.7031 9.92188 15.75 10.1094 15.75H24.5C24.875 15.75 25.25 15.4219 25.25 15V3Z" fill="black"/>
</svg>
