<svg width="48" height="48" viewBox="0 0 48 48" fill="none" xmlns="http://www.w3.org/2000/svg">
<circle opacity="0.12" cx="24" cy="24" r="24" fill="#1E77FD"/>
<path d="M23 16C27.4062 16 31 19.5938 31 24C31 28.4375 27.4062 32 23 32C18.5625 32 15 28.4375 15 24C15 19.5938 18.5625 16 23 16ZM23 30.5C26.5625 30.5 29.5 27.5938 29.5 24C29.5 20.4375 26.5625 17.5 23 17.5C19.4062 17.5 16.5 20.4375 16.5 24C16.5 27.5938 19.4062 30.5 23 30.5ZM24.25 26.5C24.6562 26.5 25 26.8438 25 27.25C25 27.6875 24.6562 28 24.25 28H21.75C21.3125 28 21 27.6875 21 27.25C21 26.8438 21.3125 26.5 21.75 26.5H22.25V24.5H22C21.5625 24.5 21.25 24.1875 21.25 23.75C21.25 23.3438 21.5625 23 22 23H23C23.4062 23 23.75 23.3438 23.75 23.75V26.5H24.25ZM23 22C22.4375 22 22 21.5625 22 21C22 20.4688 22.4375 20 23 20C23.5312 20 24 20.4688 24 21C24 21.5625 23.5312 22 23 22Z" fill="#1E77FD"/>
</svg>
