<svg width="68" height="32" viewBox="0 0 68 32" fill="none" xmlns="http://www.w3.org/2000/svg">
<rect width="68" height="32" rx="16" fill="#1174F7"/>
<path d="M19.335 21L18.4326 18.334H14.6729L13.7705 21H12.1777L15.7393 11.1357H17.3936L20.9551 21H19.335ZM16.5322 12.7764L15.0625 17.1035H18.043L16.5732 12.7764H16.5322ZM27.8457 16.2832H26.4375C26.2871 15.5176 25.7129 14.9092 24.749 14.9092C23.6074 14.9092 22.8555 15.8594 22.8555 17.4043C22.8555 18.9834 23.6143 19.8994 24.7627 19.8994C25.6719 19.8994 26.2666 19.4004 26.4375 18.5664H27.8594C27.7021 20.0977 26.4785 21.1367 24.749 21.1367C22.6914 21.1367 21.3516 19.7285 21.3516 17.4043C21.3516 15.1211 22.6914 13.6787 24.7354 13.6787C26.5879 13.6787 27.7158 14.8682 27.8457 16.2832ZM35.0781 16.2832H33.6699C33.5195 15.5176 32.9453 14.9092 31.9814 14.9092C30.8398 14.9092 30.0879 15.8594 30.0879 17.4043C30.0879 18.9834 30.8467 19.8994 31.9951 19.8994C32.9043 19.8994 33.499 19.4004 33.6699 18.5664H35.0918C34.9346 20.0977 33.7109 21.1367 31.9814 21.1367C29.9238 21.1367 28.584 19.7285 28.584 17.4043C28.584 15.1211 29.9238 13.6787 31.9678 13.6787C33.8203 13.6787 34.9482 14.8682 35.0781 16.2832ZM39.1455 14.8682C38.1133 14.8682 37.3887 15.6543 37.3135 16.7412H40.9092C40.875 15.6406 40.1777 14.8682 39.1455 14.8682ZM40.9023 18.8877H42.3037C42.0986 20.2002 40.8545 21.1367 39.207 21.1367C37.0947 21.1367 35.8164 19.708 35.8164 17.4385C35.8164 15.1826 37.1152 13.6787 39.1455 13.6787C41.1416 13.6787 42.3857 15.0869 42.3857 17.2676V17.7734H37.3066V17.8623C37.3066 19.1133 38.0586 19.9404 39.2412 19.9404C40.082 19.9404 40.7041 19.5166 40.9023 18.8877ZM47.2803 13.6924C49.1055 13.6924 50.3086 15.1279 50.3086 17.4043C50.3086 19.6807 49.1123 21.123 47.3076 21.123C46.2754 21.123 45.4551 20.6172 45.0449 19.8174H45.0107V23.3789H43.5342V13.8086H44.9629V15.0459H44.9902C45.4141 14.2188 46.2412 13.6924 47.2803 13.6924ZM46.8906 19.8721C48.0596 19.8721 48.791 18.915 48.791 17.4043C48.791 15.9004 48.0596 14.9365 46.8906 14.9365C45.7627 14.9365 45.0039 15.9209 45.0039 17.4043C45.0039 18.9014 45.7559 19.8721 46.8906 19.8721ZM51.8809 12.1064H53.3643V13.8086H54.7314V14.9775H53.3643V18.9424C53.3643 19.5645 53.6377 19.8447 54.2393 19.8447C54.3896 19.8447 54.6289 19.8311 54.7246 19.8105V20.9795C54.5605 21.0205 54.2324 21.0479 53.9043 21.0479C52.4482 21.0479 51.8809 20.4941 51.8809 19.1064V14.9775H50.835V13.8086H51.8809V12.1064Z" fill="white"/>
</svg>
