<svg width="72" height="34" viewBox="0 0 72 34" fill="none" xmlns="http://www.w3.org/2000/svg">
<rect x="1" y="1" width="70" height="32" rx="16" fill="white"/>
<path d="M13.9092 12.1357H17.3887C20.3213 12.1357 22.0576 13.9404 22.0576 17.0508C22.0576 20.168 20.3281 22 17.3887 22H13.9092V12.1357ZM15.4404 13.4551V20.6738H17.2451C19.3369 20.6738 20.4922 19.3955 20.4922 17.0645C20.4922 14.7402 19.3301 13.4551 17.2451 13.4551H15.4404ZM26.3506 15.8682C25.3184 15.8682 24.5938 16.6543 24.5186 17.7412H28.1143C28.0801 16.6406 27.3828 15.8682 26.3506 15.8682ZM28.1074 19.8877H29.5088C29.3037 21.2002 28.0596 22.1367 26.4121 22.1367C24.2998 22.1367 23.0215 20.708 23.0215 18.4385C23.0215 16.1826 24.3203 14.6787 26.3506 14.6787C28.3467 14.6787 29.5908 16.0869 29.5908 18.2676V18.7734H24.5117V18.8623C24.5117 20.1133 25.2637 20.9404 26.4463 20.9404C27.2871 20.9404 27.9092 20.5166 28.1074 19.8877ZM36.9121 17.2832H35.5039C35.3535 16.5176 34.7793 15.9092 33.8154 15.9092C32.6738 15.9092 31.9219 16.8594 31.9219 18.4043C31.9219 19.9834 32.6807 20.8994 33.8291 20.8994C34.7383 20.8994 35.333 20.4004 35.5039 19.5664H36.9258C36.7686 21.0977 35.5449 22.1367 33.8154 22.1367C31.7578 22.1367 30.418 20.7285 30.418 18.4043C30.418 16.1211 31.7578 14.6787 33.8018 14.6787C35.6543 14.6787 36.7822 15.8682 36.9121 17.2832ZM38.0264 22V12.1357H39.5029V22H38.0264ZM41.0684 22V14.8086H42.5449V22H41.0684ZM41.8066 13.6465C41.335 13.6465 40.9521 13.2637 40.9521 12.7988C40.9521 12.3271 41.335 11.9512 41.8066 11.9512C42.2783 11.9512 42.6543 12.3271 42.6543 12.7988C42.6543 13.2637 42.2783 13.6465 41.8066 13.6465ZM44.0557 22V14.8086H45.4639V16.0117H45.498C45.8877 15.1914 46.6533 14.6855 47.7607 14.6855C49.3467 14.6855 50.2559 15.6973 50.2559 17.3447V22H48.7725V17.6318C48.7725 16.5518 48.2666 15.957 47.2412 15.957C46.2021 15.957 45.5322 16.6953 45.5322 17.8096V22H44.0557ZM54.6924 15.8682C53.6602 15.8682 52.9355 16.6543 52.8604 17.7412H56.4561C56.4219 16.6406 55.7246 15.8682 54.6924 15.8682ZM56.4492 19.8877H57.8506C57.6455 21.2002 56.4014 22.1367 54.7539 22.1367C52.6416 22.1367 51.3633 20.708 51.3633 18.4385C51.3633 16.1826 52.6621 14.6787 54.6924 14.6787C56.6885 14.6787 57.9326 16.0869 57.9326 18.2676V18.7734H52.8535V18.8623C52.8535 20.1133 53.6055 20.9404 54.7881 20.9404C55.6289 20.9404 56.251 20.5166 56.4492 19.8877Z" fill="#50555C"/>
<rect x="1" y="1" width="70" height="32" rx="16" stroke="#E2E2E2"/>
</svg>
