<svg width="14" height="14" viewBox="0 0 14 14" fill="none" xmlns="http://www.w3.org/2000/svg">
<path d="M12 0C13.0938 0 14 0.90625 14 2V12C14 13.125 13.0938 14 12 14H2C0.875 14 0 13.125 0 12V2C0 0.90625 0.875 0 2 0H12ZM6.25 3.75V7.75C6.25 8.1875 6.5625 8.5 7 8.5C7.40625 8.5 7.75 8.1875 7.75 7.75V3.75C7.75 3.34375 7.40625 3 7 3C6.5625 3 6.25 3.34375 6.25 3.75ZM7 11.5C7.53125 11.5 7.96875 11.0625 7.96875 10.5312C7.96875 10 7.53125 9.5625 7 9.5625C6.4375 9.5625 6 10 6 10.5312C6 11.0625 6.4375 11.5 7 11.5Z" fill="#757575"/>
</svg>
