<svg width="48" height="48" viewBox="0 0 48 48" fill="none" xmlns="http://www.w3.org/2000/svg">
<circle opacity="0.12" cx="24" cy="24" r="24" fill="#1E77FD"/>
<path d="M30.5 20.375C30.4688 23.5 29.1875 29.1562 23.8125 31.75C23.2812 32 22.6875 32 22.1562 31.75C16.7812 29.1562 15.5 23.5 15.5 20.375C15.4688 19.5625 16 18.9062 16.6875 18.5938L22.5625 16.0938C22.6875 16.0625 22.8438 16 23 16C23.125 16 23.2812 16.0625 23.4062 16.0938L29.2812 18.5938C29.9688 18.9062 30.5 19.5625 30.5 20.375ZM22.25 17.875L17.2812 19.9688C17.0938 20.0625 16.9688 20.2188 17 20.375C17 23.125 18.0938 27.75 22.25 30.0938V17.875ZM23.75 30.0938C27.875 27.75 28.9688 23.125 29 20.375C29 20.2188 28.875 20.0625 28.6875 19.9688L23.75 17.875V30.0938Z" fill="#1E77FD"/>
</svg>
